<?xml version="1.0" encoding="utf-8"?>
<!-- Generator: Adobe Illustrator 21.0.2, SVG Export Plug-In . SVG Version: 6.00 Build 0)  -->
<svg version="1.1" id="Layer_1" xmlns="http://www.w3.org/2000/svg" xmlns:xlink="http://www.w3.org/1999/xlink" x="0px" y="0px"
	 viewBox="0 0 8 8" style="enable-background:new 0 0 8 8;" xml:space="preserve">
<path d="M5.7,0L0.1,5.7l2.2,2.2L8,2.2L5.7,0z M0.8,5.6l4.9-4.9l1.4,1.4L6.7,2.6L5.8,1.7L5.6,1.9l0.9,0.9L6.2,3.2L5.6,2.6L5.4,2.8
	L6,3.4L5.6,3.7L4.7,2.8L4.5,3l0.9,0.9L5,4.3L4.5,3.7L4.3,3.9l0.6,0.6L4.5,4.9L3.6,4L3.4,4.1L4.3,5L3.9,5.4L3.3,4.9L3.2,5l0.6,0.6
	L3.3,6L2.4,5.1L2.3,5.3l0.9,0.9L2.8,6.6L2.2,6L2,6.2l0.6,0.6L2.3,7.1L0.8,5.6z"/>
</svg>
